<?xml version="1.0" encoding="utf-8"?>
<!-- Generator: Adobe Illustrator 25.2.0, SVG Export Plug-In . SVG Version: 6.00 Build 0)  -->
<svg version="1.1" id="Capa_1" xmlns="http://www.w3.org/2000/svg" xmlns:xlink="http://www.w3.org/1999/xlink" x="0px" y="0px"
	 viewBox="0 0 500 500" style="enable-background:new 0 0 500 500;" xml:space="preserve">
<style type="text/css">
	.st0{fill:#FFFFFF;}
	.st1{fill:#D35959;}
	.st2{fill:#262626;}
</style>
<g>
	<g>
		<g>
			<g>
				<circle class="st0" cx="249.9" cy="249.9" r="210.1"/>
			</g>
		</g>
	</g>
	<g>
		<g>
			<path class="st1" d="M39.8,249.9c0-116,94.1-210.1,210.1-210.1S460,133.9,460,249.9"/>
		</g>
	</g>
	<g>
		<g>
			<path class="st2" d="M249.9,472.8C127,472.8,27,372.8,27,249.9C27,127,127,27,249.9,27c122.9,0,222.9,100,222.9,222.9
				C472.8,372.8,372.8,472.8,249.9,472.8z M249.9,52.6c-108.8,0-197.3,88.5-197.3,197.3c0,108.8,88.5,197.3,197.3,197.3
				c108.8,0,197.3-88.5,197.3-197.3C447.2,141.1,358.7,52.6,249.9,52.6z"/>
		</g>
	</g>
	<g>
		<g>
			<path class="st0" d="M39.8,249.9H460H39.8z"/>
		</g>
		<g>
			<rect x="39.8" y="237.1" class="st2" width="420.2" height="25.6"/>
		</g>
	</g>
	<g>
		<circle class="st0" cx="249.9" cy="249.9" r="77"/>
		<path class="st2" d="M249.9,339.8c-49.5,0-89.8-40.3-89.8-89.8c0-49.5,40.3-89.8,89.8-89.8c49.5,0,89.8,40.3,89.8,89.8
			C339.7,299.5,299.4,339.8,249.9,339.8z M249.9,185.7c-35.4,0-64.3,28.8-64.3,64.3c0,35.4,28.8,64.3,64.3,64.3
			c35.4,0,64.3-28.8,64.3-64.3C314.1,214.5,285.3,185.7,249.9,185.7z"/>
	</g>
	<g>
		<circle class="st0" cx="249.9" cy="249.9" r="32.8"/>
		<path class="st2" d="M249.9,295.5c-25.1,0-45.6-20.4-45.6-45.6c0-25.1,20.4-45.6,45.6-45.6c25.1,0,45.6,20.4,45.6,45.6
			C295.4,275,275,295.5,249.9,295.5z M249.9,230c-11,0-20,9-20,20c0,11,9,20,20,20c11,0,20-9,20-20C269.8,238.9,260.9,230,249.9,230
			z"/>
	</g>
	<g>
		<path class="st0" d="M124.2,177.1L102,164.2c17.4-30,43-53.8,74.2-68.8l11.1,23.1C160.8,131.3,138.9,151.5,124.2,177.1z"/>
	</g>
</g>
</svg>
